<svg xmlns="http://www.w3.org/2000/svg" xml:space="preserve" viewBox="0 0 700 700"><defs><style type="text/css">.fil1{fill:#fefefe}.fil6{fill:#006498}.fil5{fill:#bdeaff}</style></defs><path d="M80 0h540c44 0 80 36 80 80v540c0 44-36 80-80 80H80c-44 0-80-36-80-80V80C0 36 36 0 80 0z" style="fill:#455a64"/><path class="fil1" d="M350 71c154 0 279 125 279 279 0 154-125 279-279 279-154 0-279-125-279-279 0-154 125-279 279-279z"/><path d="m475 236 118 151c3 116-149 252-292 198l-76-99 114-156s138-95 136-94z" style="fill:#332c2b;fill-opacity:.149"/><path d="M231 211h208l38 24v246c0 5-3 8-8 8H231c-5 0-8-3-8-8V219c0-5 3-8 8-8z" style="fill:#2bbcff"/><path d="M231 211h208l38 24v2l-37-23H231c-4 0-7 3-7 7v263c-1-1-1-2-1-3V219c0-5 3-8 8-8z" style="fill:#53c6fc"/><path class="fil5" d="M305 212h113v98H305zM255 363h189c3 0 5 2 5 4v116H250V367c0-2 2-4 5-4z"/><path class="fil6" d="M250 470h199v13H250zM380 226h10c3 0 6 2 6 5v40c0 3-3 6-6 6h-10c-3 0-6-3-6-6v-40c0-3 3-5 6-5z"/><path class="fil1" d="M254 226c10 0 17 7 17 17 0 9-7 16-17 16-9 0-17-7-17-16 0-10 8-17 17-17z"/><path class="fil6" d="M267 448h165c2 0 3 1 3 3 0 1-1 3-3 3H267c-2 0-3-2-3-3 0-2 1-3 3-3zM267 415h165c2 0 3 1 3 3 0 1-1 2-3 2H267c-2 0-3-1-3-2 0-2 1-3 3-3zM267 381h165c2 0 3 2 3 3 0 2-1 3-3 3H267c-2 0-3-1-3-3 0-1 1-3 3-3z"/><path class="fil1" d="M236 472c3 0 5 2 5 5 0 2-2 4-5 4-3 0-5-2-5-4 0-3 2-5 5-5zM463 472c3 0 5 2 5 5 0 2-2 4-5 4-3 0-5-2-5-4 0-3 2-5 5-5z"/><path class="fil6" d="M305 212h-21v98h21z"/><path d="M477 479v2c0 5-3 8-8 8H231c-5 0-8-3-8-8v-2c0 4 3 8 8 8h238c5 0 8-4 8-8z" style="fill:#0ea5eb"/><path d="M350 70c155 0 280 125 280 280 0 155-125 280-280 280-155 0-280-125-280-280 0-155 125-280 280-280zm0 46c129 0 234 105 234 234 0 129-105 234-234 234-129 0-234-105-234-234 0-129 105-234 234-234z" style="fill:#2979ff"/></svg>
