<svg xmlns="http://www.w3.org/2000/svg" width="512" height="512"><filter id="a" color-interpolation-filters="sRGB"><feGaussianBlur in="SourceGraphic" stdDeviation="6"/><feDiffuseLighting surfaceScale="4"><feDistantLight azimuth="235" elevation="45"/></feDiffuseLighting><feComposite in2="SourceGraphic" k1="1.4" operator="arithmetic" result="C"/><feGaussianBlur stdDeviation="6"/><feSpecularLighting specularExponent="25" surfaceScale="4"><feDistantLight azimuth="235" elevation="45"/></feSpecularLighting><feComposite in="C" k2="1" k3="1" operator="arithmetic"/><feComposite in2="SourceGraphic" operator="in"/></filter><filter id="b" width="200%" height="200%"><feOffset dx="8" dy="8" in="SourceAlpha"/><feGaussianBlur stdDeviation="10"/><feBlend in="SourceGraphic"/></filter><rect width="512" height="512" fill="#0707ff" filter="url(#a)" rx="32"/><path fill="#fff" d="M82 208c0-85-53-37-53-90 0-68 203-87 211-87 33 0 33 8 37 38 0 10 0 30 14 30 20 0 33-68 108-68 58 0 96 43 96 100 0 58-49 104-106 104-56 0-72-49-94-49-24 0-19 58-19 73 0 26 2 62 6 95 5 38 71 14 71 66 0 54-76 59-171 59-39 0-158 1-158-58 0-36 39-36 49-66 6-21 9-71 9-95z" filter="url(#b)"/></svg>
